<svg xmlns="http://www.w3.org/2000/svg" viewBox="0 0 182 36" width="182" height="36" fill="none" color="#FFFFFF" role="img" aria-label="FundingPips"><path fill="currentColor" d="M0 32.5839v-17.343h21.1181c2.3038 0 4.1713-1.8825 4.1713-4.2045-.0001-2.32194-1.8676-4.20418-4.1713-4.2042h-7.561c-1.8718-.00008-3.389-1.52952-3.389-3.4161 0-1.88659 1.5172-3.41602909 3.389-3.4161h7.561c6.0475.00002503 10.9499 4.9412 10.95 11.0364 0 6.0953-4.9025 11.0367-10.95 11.0367H6.77871v10.5108C6.7787 34.4705 5.26121 36 3.38935 36 1.5175 36 .00000946 34.4705 0 32.5839M6.77866 3.41619c0 1.88663-1.51744 3.41605-3.3893 3.41605S.00005251 5.30282.00005251 3.41619 1.5175.00014114 3.38936.00014114 6.77866 1.52956 6.77866 3.41619"></path><path fill="currentColor" d="M13.5005 28.8557c0-1.8866 1.5175-3.416 3.3893-3.416 1.8719 0 3.3893 1.5294 3.3893 3.416v3.6711c0 1.8866-1.5174 3.416-3.3893 3.416-1.8718 0-3.3893-1.5294-3.3893-3.416zm29.0473-2.552V10.1169h10.6685v2.798h-7.2271v3.9311h5.6899v2.7055h-5.6899v6.7522zm16.3234.2775q-1.4454 0-2.4549-.6012c-.6577-.4009-1.1625-.9867-1.5143-1.7575-.3365-.7862-.5047-1.742-.5047-2.8673v-6.706h3.4414v6.3591q0 1.29495.5277 1.9887c.3518.447.9177.6706 1.6978.6706.4742 0 .8948-.1079 1.2619-.3238.3824-.2158.673-.5318.8718-.9481.2141-.4162.3212-.9249.3212-1.5261v-6.2204h3.4414v11.6545H62.955l-.2753-1.8499c-.3365.632-.8259 1.1485-1.4683 1.5493-.6424.3854-1.4225.5781-2.3402.5781m9.1521-.2775V14.6492h3.0055l.2753 1.873c.3518-.6474.8489-1.1639 1.4913-1.5493.6424-.4008 1.4225-.6012 2.3402-.6012.9636 0 1.7742.2081 2.4319.6244q.98655.6243 1.4913 1.8036.5277 1.1562.5277 2.8443v6.6597H76.168v-6.336c0-.8479-.1835-1.503-.5506-1.9655-.3518-.4779-.9177-.7169-1.6978-.7169-.4589 0-.8795.1157-1.2619.3469-.367.2158-.6577.5318-.8718.9481-.2141.4162-.3212.9172-.3212 1.503v6.2204zm18.6504.2775c-1.0247 0-1.9577-.2621-2.799-.7862-.8259-.5242-1.4836-1.241-1.9731-2.1506-.4741-.9249-.7112-1.9732-.7112-3.1448 0-1.1871.2447-2.2353.7341-3.1449.4895-.925 1.1548-1.6495 1.9961-2.1736q1.28475-.8094 2.8449-.8094c.7954 0 1.4913.1465 2.0878.4394.5966.2775 1.086.686 1.4684 1.2255V9.65441h3.4414V26.3037h-3.0514l-.39-1.5031c-.2294.3238-.5124.6244-.8489.9019-.3212.262-.7112.4702-1.1701.6243q-.68835.2544-1.629.2544m.8948-3.0293c.566 0 1.063-.131 1.4913-.3931.4436-.262.7801-.6243 1.0095-1.0868.2447-.4625.3671-.9943.3671-1.5956 0-.6012-.1224-1.133-.3671-1.5955-.2294-.4625-.5659-.8248-1.0095-1.0868-.4283-.2621-.9253-.3931-1.4913-.3931-.5506 0-1.0477.131-1.4913.3931-.4282.262-.7647.6243-1.0095 1.0868-.2447.4625-.367.9866-.367 1.5724 0 .6012.1223 1.1408.367 1.6187.2448.4625.5813.8248 1.0095 1.0868.4436.2621.9407.3931 1.4913.3931m8.3074 2.7518V14.6492h3.4414v11.6545zm1.7207-12.9957c-.6118 0-1.1089-.1773-1.4913-.5318-.3824-.3546-.5736-.8017-.5736-1.3412q0-.8325.5736-1.3644c.3824-.35452.8795-.53181 1.4913-.53181.6271 0 1.1318.17729 1.5142.53181.3977.3546.5965.8094.5965 1.3644 0 .5395-.1988.9866-.5965 1.3412-.3824.3545-.8871.5318-1.5142.5318m3.8354 12.9957V14.6492h3.006l.275 1.873c.352-.6474.849-1.1639 1.491-1.5493q.9645-.6012 2.34-.6012c.964 0 1.775.2081 2.432.6244.658.4162 1.155 1.0174 1.492 1.8036.352.7708.527 1.7189.527 2.8443v6.6597h-3.418v-6.336c0-.8479-.184-1.503-.551-1.9655-.351-.4779-.917-.7169-1.697-.7169-.459 0-.88.1157-1.262.3469-.367.2158-.658.5318-.872.9481q-.321.6243-.321 1.503v6.2204zm18.605 5.3648c-1.132 0-2.111-.1388-2.937-.4163-.826-.262-1.468-.6629-1.927-1.2024-.444-.5396-.665-1.2179-.665-2.0349 0-.5858.152-1.1331.458-1.6418.322-.5088.773-.9558 1.354-1.3412.581-.4008 1.277-.7323 2.088-.9944l1.147 1.7575c-.673.2004-1.178.4625-1.514.7862-.321.3237-.482.686-.482 1.0868 0 .3083.107.5704.321.7862.214.2159.505.3777.872.4856.382.1079.803.1619 1.262.1619.443 0 .826-.054 1.147-.1619.336-.1079.596-.2697.78-.4856.199-.2004.298-.447.298-.7399 0-.3854-.13-.6938-.39-.925s-.795-.3777-1.606-.4394c-.749-.0616-1.43-.1464-2.042-.2543-.596-.1233-1.132-.2698-1.606-.4394-.459-.1695-.856-.3545-1.193-.555q-.504-.3006-.78-.6012v-.5318l2.524-2.798 2.363.7399-3.051 3.1218 1.055-1.7574c.153.0925.314.1849.482.2774.168.0771.375.1465.619.2082.245.0616.551.1233.918.1849.367.0463.841.1003 1.422.1619.995.0925 1.813.2852 2.455.5781q.987.41625 1.446 1.1562c.321.4933.482 1.0946.482 1.8037 0 .6937-.192 1.3489-.574 1.9655-.382.6167-.964 1.11-1.744 1.48q-1.17.5781-2.982.5781m.023-8.7409c-.964 0-1.797-.1927-2.501-.5781s-1.247-.8941-1.629-1.5262c-.382-.6475-.574-1.372-.574-2.1736 0-.7863.192-1.4954.574-2.1275.382-.6474.925-1.1639 1.629-1.5493.704-.4008 1.537-.6012 2.501-.6012q1.4685 0 2.523.6012c.704.3854 1.239.9019 1.606 1.5493.368.6321.551 1.3412.551 2.1275 0 .8016-.183 1.5261-.551 2.1736-.367.6321-.902 1.1408-1.606 1.5262q-1.0545.5781-2.523.5781m0-2.613c.52 0 .948-.1388 1.285-.4163.336-.2774.504-.686.504-1.2255 0-.5396-.168-.9481-.504-1.2256-.337-.2775-.765-.4162-1.285-.4162s-.956.1387-1.308.4162c-.337.2775-.505.686-.505 1.2256 0 .5395.168.9481.505 1.2255.352.2775.788.4163 1.308.4163m1.927-3.2836-.505-2.3818h4.795v1.9655zm6.021 9.2727V10.1169h6.24c1.316 0 2.402.2235 3.258.6706.872.4471 1.522 1.0637 1.95 1.8499.428.7708.643 1.6418.643 2.613 0 .9096-.207 1.7497-.62 2.5205s-1.048 1.3952-1.904 1.8731c-.857.4779-1.966.7168-3.327.7168h-2.799v5.9429zm3.441-8.7178h2.57q1.353 0 1.95-.6243c.413-.4316.619-1.002.619-1.7112 0-.7245-.206-1.2872-.619-1.688-.398-.4163-1.048-.6244-1.95-.6244h-2.57zm9.958 8.7178V14.6492h3.441v11.6545zm1.721-12.9957c-.612 0-1.109-.1773-1.492-.5318-.382-.3546-.573-.8017-.573-1.3412q0-.8325.573-1.3644c.383-.35452.88-.53181 1.492-.53181.627 0 1.131.17729 1.514.53181.398.3546.596.8094.596 1.3644 0 .5395-.198.9866-.596 1.3412-.383.3545-.887.5318-1.514.5318m3.835 18.083V14.6492h3.052l.39 1.5262c.244-.3238.527-.6244.849-.9019.321-.2774.703-.4933 1.147-.6474.459-.1696.994-.2544 1.606-.2544 1.07 0 2.011.2698 2.822.8094.826.5395 1.483 1.2718 1.973 2.1967.489.9096.734 1.9502.734 3.1218s-.252 2.2199-.757 3.1448c-.49.9096-1.147 1.6264-1.973 2.1506-.826.5241-1.752.7862-2.776.7862-.826 0-1.538-.1465-2.134-.4394q-.8955-.43935-1.491-1.2255v6.4747zm6.195-7.8391c.55 0 1.04-.1233 1.468-.3699.444-.2621.788-.6244 1.033-1.0869.244-.4625.367-.9943.367-1.5955 0-.6013-.123-1.1331-.367-1.5956-.245-.4625-.589-.8247-1.033-1.0868-.428-.2775-.918-.4162-1.468-.4162-.566 0-1.071.1387-1.514.4162-.429.2621-.765.6243-1.01 1.0868s-.367.9866-.367 1.5724c0 .6013.122 1.1331.367 1.5956s.581.8248 1.01 1.0868c.443.2621.948.3931 1.514.3931m12.919 3.0293c-1.086 0-2.027-.1696-2.822-.5087-.78-.3546-1.4-.8325-1.859-1.4337-.443-.6013-.696-1.2796-.757-2.0349h3.419c.061.262.168.501.321.7168.168.2004.39.3623.665.4856.291.1079.612.1619.964.1619.382 0 .688-.0463.918-.1388.244-.1079.428-.2466.55-.4162.123-.1696.184-.3469.184-.5319 0-.2929-.092-.5164-.276-.6706-.168-.1541-.42-.2774-.757-.3699-.336-.1079-.742-.2081-1.216-.3006-.55-.1234-1.101-.2621-1.652-.4163-.535-.1696-1.017-.3777-1.445-.6243-.413-.2467-.749-.5627-1.009-.9481-.245-.4008-.368-.8864-.368-1.4568 0-.6937.192-1.3181.574-1.8731.382-.5704.933-1.0174 1.652-1.3412.719-.3391 1.591-.5087 2.615-.5087 1.453 0 2.593.3237 3.419.9712s1.315 1.5185 1.468 2.613h-3.212c-.092-.3083-.283-.5395-.573-.6937-.291-.1696-.658-.2544-1.102-.2544-.504 0-.887.0848-1.147.2544s-.39.3931-.39.6706c0 .185.084.3546.253.5087.183.1388.443.2621.78.37.336.1079.749.2158 1.239.3238q1.3995.3006 2.409.6474c.688.2313 1.223.5704 1.606 1.0175.382.4316.566 1.0637.55 1.8962.016.7553-.183 1.4259-.596 2.0117-.398.5859-.972 1.0483-1.721 1.3875-.749.3237-1.644.4856-2.684.4856m11.036-6.9141q-1.422 0-2.547-.6243-1.101-.64755-1.743-1.7343c-.413-.74-.62-1.5879-.62-2.5437 0-.9712.207-1.8191.62-2.5436q.642-1.11 1.743-1.7343c.75-.4317 1.599-.64749 2.547-.64749.964 0 1.805.21579 2.524.64749.734.4162 1.308.9943 1.721 1.7343.428.7245.642 1.5724.642 2.5436q0 1.4337-.642 2.5437c-.413.7245-.987 1.3026-1.721 1.7343-.719.4162-1.56.6243-2.524.6243m.688-2.4974-1.216-2.2199h1.584l1.376 2.2199zm-.688 1.3181c.734 0 1.369-.1542 1.904-.4625.551-.3083.979-.7477 1.285-1.3181s.459-1.2178.459-1.9424c0-.7399-.153-1.3874-.459-1.9424-.306-.5704-.734-1.0097-1.285-1.3181-.535-.3237-1.17-.4856-1.904-.4856s-1.376.1619-1.927.4856c-.551.3084-.979.7477-1.285 1.3181-.29.555-.436 1.2025-.436 1.9424 0 .7246.146 1.372.436 1.9424.306.5704.734 1.0098 1.285 1.3181s1.193.4625 1.927.4625m-2.019-1.3181v-4.9254h2.455c.535 0 .956.1387 1.262.4162.321.2775.482.6629.482 1.1562 0 .4779-.161.8633-.482 1.1562-.306.2775-.727.4163-1.262.4163h-.941v1.7805zm1.491-2.8442h.735c.122 0 .221-.0309.298-.0925.092-.0617.138-.1696.138-.3238q0-.20805-.138-.2775c-.077-.0616-.176-.0925-.298-.0925h-.735z"></path></svg>