<svg xmlns="http://www.w3.org/2000/svg" width="275.39" height="160.04" viewBox="336.86 190 275.39 160.04" fill="none"><path d="M479.268 281.057C486.307 281.057 491.8 282.174 495.805 284.37C499.819 286.57 502.872 289.759 504.97 293.948C507.065 298.133 508.129 303.604 508.129 310.41V312.208H470.088L470.142 312.703C470.491 315.934 471.331 318.412 472.713 320.076C474.625 322.426 477.146 323.605 480.226 323.605C482.167 323.605 484.014 323.094 485.76 322.078L485.767 322.073C486.813 321.437 487.901 320.364 489.041 318.891L506.78 320.614C504.027 325.461 500.744 328.931 496.958 331.061C493.026 333.274 487.327 334.393 479.813 334.393C473.304 334.393 468.231 333.431 464.569 331.532L464.568 331.531C460.904 329.641 457.846 326.628 455.422 322.466V322.465C452.997 318.321 451.788 313.445 451.788 307.82C451.788 299.804 454.225 293.365 459.083 288.449C463.933 283.54 470.631 281.057 479.268 281.057ZM480.024 291.934C476.872 291.934 474.335 293.262 472.451 295.874C471.238 297.532 470.49 299.946 470.175 303.073L470.125 303.565H489.102L489.859 304.323L489.741 303.086C489.37 299.201 488.364 296.335 486.658 294.561L486.657 294.56L486.333 294.241C484.681 292.7 482.575 291.934 480.024 291.934Z" fill="white" stroke="white" stroke-width="0.89362"></path><path d="M585.278 281.046C591.166 281.046 595.459 281.524 598.192 282.444C600.934 283.368 603.217 284.798 605.032 286.729L605.033 286.729C606.762 288.558 608.224 291.003 609.411 294.096L592.388 295.855C591.893 294.308 591.113 293.11 590.003 292.308L589.998 292.304L589.698 292.103C588.181 291.132 586.387 290.655 584.343 290.655C582.202 290.655 580.484 291.059 579.385 291.957C578.316 292.831 577.751 293.92 577.751 295.204C577.752 295.914 577.928 296.556 578.29 297.115C578.65 297.672 579.179 298.122 579.848 298.478L579.851 298.479C580.524 298.829 581.557 299.148 582.916 299.443C584.283 299.74 586.011 300.02 588.094 300.282H588.097C594.385 301.025 599.019 302.065 602.03 303.372C605.033 304.676 607.309 306.524 608.88 308.92V308.921C610.458 311.316 611.255 313.954 611.255 316.822C611.255 319.689 610.426 322.556 608.739 325.327C607.07 328.068 604.432 330.26 600.788 331.91C597.163 333.551 592.181 334.382 585.823 334.382C576.816 334.382 570.502 333.025 566.792 330.407C563.188 327.865 560.824 324.283 559.704 319.641L577.658 317.868C578.445 320.092 579.53 321.751 580.963 322.785V322.786C582.455 323.87 584.428 324.383 586.814 324.383C589.417 324.383 591.498 323.805 592.997 322.577L592.998 322.578C594.189 321.656 594.796 320.473 594.796 319.057C594.796 317.434 593.971 316.196 592.426 315.353L592.425 315.352C591.858 315.044 590.873 314.725 589.516 314.385C588.488 314.127 587.223 313.851 585.723 313.559L584.145 313.26C577.566 312.059 573.043 310.954 570.53 309.939L570.528 309.938C568.054 308.95 565.961 307.273 564.259 304.892H564.258C562.568 302.537 561.715 299.838 561.715 296.805C561.715 293.481 562.634 290.632 564.461 288.238C566.296 285.846 568.827 284.038 572.074 282.853L572.076 282.852C575.323 281.655 579.716 281.046 585.278 281.046Z" fill="white" stroke="white" stroke-width="0.89362"></path><path d="M530.824 281.002V288.126L531.46 287.829C536.562 285.44 542.275 284.501 547.806 285.266C549.739 285.533 551.645 286.018 553.298 286.989L553.625 287.189C556.012 288.723 557.694 291.44 557.998 294.359L557.99 294.368L558.007 294.575C558.251 297.571 556.97 300.676 554.684 302.443C553.24 303.558 551.439 304.154 549.618 304.228C546.849 304.334 544.018 303.205 542.235 301.024C540.448 298.838 539.833 295.586 540.901 292.961L541.185 292.266L540.438 292.349C535.922 292.85 531.979 296.677 531.11 301.314L531.109 301.315C530.948 302.188 530.881 303.078 530.825 303.934L530.824 303.949V334.394H512.685V281.002H530.824Z" fill="white" stroke="white" stroke-width="0.89362"></path><path d="M402.59 332.524L456.871 272.928C455.211 265.919 451.209 259.784 444.874 254.532C437.01 248.045 425.426 244.812 410.162 244.812L396.295 244.812L404.943 221.144L455.483 221.144L467.369 193.158L378.969 193.158L378.969 193.138L354.775 261.872L380.93 261.872C392.735 261.872 401.735 264.322 407.969 269.243C413.47 273.49 416.225 279.033 416.225 285.831C416.225 293.232 413.601 300.1 408.362 306.457C402.861 313.074 396.204 316.87 388.401 317.864C389.517 315.052 390.07 312.24 390.07 309.419C390.07 302.932 387.516 297.399 382.408 292.77C377.299 288.151 371.095 285.851 363.815 285.851C356.534 285.851 350.551 288.151 345.483 292.77C340.405 297.389 337.861 302.932 337.861 309.419C337.861 315.504 340.123 320.776 344.638 325.224C349.174 329.672 354.835 332.354 361.643 333.277C367.606 334.201 373.529 334.663 379.451 334.663C387.707 334.663 395.41 333.95 402.57 332.534L402.59 332.524Z" fill="white"></path><path d="M491.854 234.5L514.922 209.175C513.203 198.862 504.223 191 493.413 191C481.366 191 471.602 200.75 471.602 212.78C471.602 224.81 480.532 233.707 491.864 234.5L491.854 234.5Z" fill="white"></path><path d="M523.29 195.095C524.418 193.849 526.344 193.753 527.592 194.879C528.84 196.006 528.938 197.929 527.81 199.175L393.083 348.04C391.955 349.285 390.029 349.383 388.781 348.257C387.533 347.131 387.438 345.208 388.565 343.962L523.29 195.095Z" fill="white"></path></svg> 